<svg id="图层_1" data-name="图层 1" xmlns="http://www.w3.org/2000/svg" viewBox="0 0 2359.69 529.2"><defs><style>.cls-1{fill:#fff;fill-rule:evenodd;}</style></defs><title>notado_logo</title><polygon class="cls-1" points="0 529.2 0 1.9 48.91 1.9 350.54 451.61 350.54 0 393.99 0 393.99 527.29 347.73 527.29 44.97 79.62 44.97 529.2 0 529.2"/><path class="cls-1" d="M2450.4,836.18v211.31q-58.87-73.29-152.29-73.3-80.91,0-138.24,57.35t-57.35,138.24q0,80.89,57.35,138.24t138.24,57.36q80.89,0,138.24-57.35t57.34-138.24V836.18H2450.4ZM2406,1277.65q-44.82,44.44-107.86,44.44t-107.86-44.44q-44.44-44.81-44.44-107.86t44.44-107.86q44.81-44.44,107.86-44.44T2406,1061.93q44.43,44.81,44.43,107.86T2406,1277.65Z" transform="translate(-134 -836.18)"/><path class="cls-1" d="M2021.24,836.18v211.31q-58.87-73.29-152.29-73.3-80.91,0-138.24,57.35t-57.35,138.24q0,80.89,57.35,138.24t138.24,57.36q80.89,0,138.24-57.35t57.34-138.24V836.18h-43.29Zm-44.44,441.46q-44.8,44.44-107.85,44.44t-107.86-44.44q-44.45-44.81-44.44-107.86t44.44-107.86q44.8-44.44,107.86-44.44t107.85,44.44q44.45,44.81,44.44,107.86T1976.8,1277.65Z" transform="translate(-134 -836.18)"/><path class="cls-1" d="M1635.38,1169.79q0-80.9-57-137.87-57.35-57.34-138.24-57.35t-138.24,57.35q-57.34,57-57.34,137.87T1301.93,1308q57.34,57.36,138.24,57.35,93.43,0,152.3-72.92v72.92h42.92V1169.79h0Zm-87.74,107.86q-44.43,44.81-107.47,44.82t-107.86-44.82q-44.45-44.81-44.44-107.86,0-62.66,44.44-107.48,44.8-44.81,107.86-44.82t107.47,44.82q44.82,44.81,44.82,107.48Q1592.46,1232.84,1547.64,1277.65Z" transform="translate(-134 -836.18)"/><path class="cls-1" d="M1061.89,1017.49v152.29q0,63,44.44,107.48,44.82,44.81,107.86,44.82v43.29q-80.9,0-138.24-57.35t-57.35-138.24V836.18h43.29v138h152.3v43.29h-152.3Z" transform="translate(-134 -836.18)"/><path class="cls-1" d="M923.27,1031.55Q865.91,974.21,785,974.21t-138.24,57.35q-57.35,57.36-57.35,138.24T646.79,1308q57.34,57.34,138.24,57.35T923.27,1308q57.34-57.34,57.35-138.24T923.27,1031.55Zm-30.38,245.71q-44.81,44.81-107.86,44.82t-107.86-44.82q-44.44-44.44-44.44-107.48t44.44-107.86Q722,1017.12,785,1017.11t107.86,44.82q44.44,44.81,44.44,107.86T892.89,1277.26Z" transform="translate(-134 -836.18)"/></svg>